<svg xmlns="http://www.w3.org/2000/svg" viewBox="0 0 100 100" fill="none">
  <defs>
    <linearGradient id="pulseGrad" x1="0%" y1="0%" x2="100%" y2="100%">
      <stop offset="0%" stop-color="#ff4500" />
      <stop offset="50%" stop-color="#f97316" />
      <stop offset="100%" stop-color="#ef4444" />
    </linearGradient>
    <filter id="glow" x="-20%" y="-20%" width="140%" height="140%">
      <feDropShadow dx="0" dy="4" stdDeviation="6" flood-color="#ff4500" flood-opacity="0.35" />
    </filter>
  </defs>
  <rect width="100" height="100" rx="24" fill="url(#pulseGrad)" filter="url(#glow)" />
  <!-- Radio / Pulse Waves -->
  <circle cx="50" cy="50" r="32" stroke="#ffffff" stroke-width="3" stroke-opacity="0.25" stroke-dasharray="4 4" />
  <circle cx="50" cy="50" r="22" stroke="#ffffff" stroke-width="3.5" stroke-opacity="0.5" />
  <!-- Center Core Signal Pin -->
  <path d="M50 26C41.7 26 35 32.7 35 41C35 52.2 48.2 67.8 48.8 68.5C49.4 69.2 50.6 69.2 51.2 68.5C51.8 67.8 65 52.2 65 41C65 32.7 58.3 26 50 26ZM50 46C47.2 46 45 43.8 45 41C45 38.2 47.2 36 50 36C52.8 36 55 38.2 55 41C55 43.8 52.8 46 50 46Z" fill="#ffffff" />
  <!-- Live Signal Dot -->
  <circle cx="50" cy="41" r="3.5" fill="#ff4500" />
</svg>